# xmcd
#
# Track frame offsets: 
#        150
#        25575
#        50714
#        76036
#        89227
#        118201
#        134281
#        160899
#        182325
#        203922
#        247159
#
# Disc length: 3458 seconds
#
# Revision: 0
# Processed by: cddbd v1.5.2PL0 Copyright (c) Steve Scherf et al.
# Submitted via: ExactAudioCopy v1.0b3
#
DISCID=940d800b
DTITLE=Various Artist - Contemporary Blues Interpret Led Zeppelin
DYEAR=2008
DGENRE=Blues
TTITLE0=Heartbreaker - Alvin Youngblood Hart
TTITLE1=Custard Pie - Derek Trucks and Eric Gales
TTITLE2=All My Love - Walter Trout and Michael White
TTITLE3=You Need Love - Joe Louis Walker and James Cotton
TTITLE4=Since I've Been Loving You - Otis Clay
TTITLE5=Bring It On Home - Robert Lockwood Jr.
TTITLE6=You Shook Me - Jimmy Hall
TTITLE7=Whole Lotta Love - Pat Travers
TTITLE8=Trample Underfoot - Eric Gales
TTITLE9=Tea For One - Joe Bonamassa
TTITLE10='Cause I Love You - Jimmy Page
EXTD=
EXTT0=
EXTT1=
EXTT2=
EXTT3=
EXTT4=
EXTT5=
EXTT6=
EXTT7=
EXTT8=
EXTT9=
EXTT10=
PLAYORDER=
